<?xml version="1.0" standalone="no"?>
<!DOCTYPE svg PUBLIC "-//W3C//DTD SVG 20010904//EN"
 "http://www.w3.org/TR/2001/REC-SVG-20010904/DTD/svg10.dtd">
<svg version="1.0" xmlns="http://www.w3.org/2000/svg"
 width="512.000000pt" height="512.000000pt" viewBox="0 0 512.000000 512.000000"
 preserveAspectRatio="xMidYMid meet">

<g transform="translate(0.000000,512.000000) scale(0.100000,-0.100000)"
fill="#d7dfe9" stroke="none">
<path d="M1968 4310 c-460 -45 -860 -392 -972 -843 -20 -81 -39 -270 -31 -306
5 -24 -1 -29 -58 -59 -189 -97 -342 -292 -398 -507 -29 -112 -29 -280 0 -390
77 -289 283 -495 576 -577 78 -21 96 -22 698 -26 l617 -3 0 80 0 81 -608 0
c-584 0 -610 1 -682 21 -112 31 -185 74 -276 164 -135 133 -194 271 -194 453
0 174 56 315 173 439 78 82 188 154 266 174 l46 11 1 177 c0 163 2 183 28 265
51 169 127 297 246 416 119 119 247 195 416 246 83 26 101 28 264 28 162 0
182 -2 263 -27 280 -86 494 -271 612 -527 16 -36 30 -66 31 -68 1 -1 33 17 73
42 39 24 111 57 159 72 79 26 99 29 227 29 124 -1 149 -4 220 -28 110 -37 196
-89 280 -172 110 -109 188 -258 210 -405 7 -46 7 -46 70 -69 189 -67 347 -245
399 -447 23 -89 21 -232 -5 -324 -31 -112 -74 -185 -164 -276 -92 -93 -174
-143 -285 -173 -72 -20 -99 -21 -682 -21 l-608 0 0 -81 0 -80 618 3 c601 4
619 5 697 26 365 102 597 402 597 772 -1 310 -163 574 -440 714 -29 15 -55 32
-56 39 -55 188 -109 287 -219 404 -126 132 -264 213 -435 255 -166 40 -386 23
-535 -41 -27 -12 -50 -21 -52 -21 -1 0 -22 30 -46 68 -55 84 -213 245 -298
302 -220 147 -485 215 -743 190z"/>
<path d="M2280 2515 l-355 -355 58 -57 57 -58 260 260 260 260 0 -883 0 -882
80 0 80 0 0 882 0 883 260 -260 260 -260 57 58 58 57 -355 355 c-195 195 -357
355 -360 355 -3 0 -165 -160 -360 -355z"/>
</g>
</svg>
